<svg width="32" height="32" viewBox="0 0 32 32" fill="none" xmlns="http://www.w3.org/2000/svg">
<path d="M7.38665 26.0245C6.57332 26.0245 5.81332 25.7445 5.26665 25.2245C4.57332 24.5711 4.23998 23.5844 4.35998 22.5178L4.85332 18.1978C4.94665 17.3845 5.43998 16.3045 6.01332 15.7178L16.96 4.13112C19.6933 1.23779 22.5466 1.15779 25.44 3.89112C28.3333 6.62445 28.4133 9.47779 25.68 12.3711L14.7333 23.9578C14.1733 24.5578 13.1333 25.1178 12.32 25.2511L8.02665 25.9844C7.79998 25.9978 7.59998 26.0245 7.38665 26.0245ZM21.24 3.87779C20.2133 3.87779 19.32 4.51779 18.4133 5.47779L7.46665 17.0778C7.19998 17.3578 6.89332 18.0245 6.83998 18.4111L6.34665 22.7311C6.29332 23.1711 6.39998 23.5311 6.63998 23.7578C6.87998 23.9845 7.23998 24.0645 7.67998 23.9978L11.9733 23.2645C12.36 23.1978 13 22.8511 13.2666 22.5711L24.2133 10.9845C25.8666 9.22445 26.4667 7.59779 24.0533 5.33112C22.9867 4.30445 22.0667 3.87779 21.24 3.87779Z" fill="#D4A373"/>
<path d="M23.1199 14.6004C23.0933 14.6004 23.0533 14.6004 23.0266 14.6004C18.8666 14.1871 15.5199 11.0271 14.8799 6.89378C14.7999 6.34712 15.1733 5.84045 15.7199 5.74712C16.2666 5.66712 16.7733 6.04045 16.8666 6.58712C17.3733 9.81378 19.9866 12.2938 23.2399 12.6138C23.7866 12.6671 24.1866 13.1604 24.1333 13.7071C24.0666 14.2138 23.6266 14.6004 23.1199 14.6004Z" fill="#D4A373"/>
<path d="M28 30.335H4C3.45333 30.335 3 29.8816 3 29.335C3 28.7883 3.45333 28.335 4 28.335H28C28.5467 28.335 29 28.7883 29 29.335C29 29.8816 28.5467 30.335 28 30.335Z" fill="#D4A373"/>
</svg>
