<svg width="32" height="32" viewBox="0 0 32 32" fill="none" xmlns="http://www.w3.org/2000/svg">
<path d="M13.9065 24.4939C13.7065 24.4939 13.5199 24.4405 13.3465 24.3205C13.0665 24.1339 12.9065 23.8272 12.9065 23.4939C12.9065 23.2939 12.8932 23.0805 12.8665 22.8672C12.7465 21.9205 12.3199 21.0939 11.5999 20.3739C10.8799 19.6539 9.98655 19.2005 9.02655 19.0805C8.86655 19.0672 8.63988 19.0539 8.42655 19.0672C8.07988 19.0939 7.75988 18.9472 7.55988 18.6672C7.35988 18.4005 7.30655 18.0405 7.41321 17.7205C7.61321 17.1739 7.90655 16.6805 8.25321 16.2805L10.3065 13.6939C13.8399 9.28055 20.9999 3.97388 26.2399 1.86721C27.3599 1.44055 28.5332 1.69388 29.3465 2.49388C30.1865 3.33388 30.4399 4.53388 29.9999 5.62721C27.8932 10.8805 22.5999 18.0272 18.1865 21.5605L15.5599 23.6672C15.0665 24.0272 14.6665 24.2539 14.2665 24.4139C14.1599 24.4672 14.0265 24.4939 13.9065 24.4939ZM10.0532 17.2539C11.1732 17.5472 12.1732 18.1339 13.0132 18.9739C13.8532 19.8005 14.4132 20.7605 14.6932 21.8272L16.9465 20.0139C21.1332 16.6672 26.1599 9.88055 28.1465 4.89388C28.3465 4.40055 28.0665 4.05388 27.9332 3.93388C27.8399 3.84055 27.4932 3.54721 26.9599 3.74721C21.9999 5.74721 15.2132 10.7739 11.8532 14.9605L10.0532 17.2539Z" fill="#DAD7CD"/>
<path d="M5.43966 30.3321C4.43966 30.3321 3.47966 29.9321 2.75966 29.2121C1.93299 28.3854 1.53299 27.2388 1.66633 26.0654L2.02633 22.7854C2.37299 19.5321 5.03966 17.1188 8.34633 17.0521C8.59966 17.0388 8.93299 17.0521 9.23966 17.0788C10.693 17.2654 11.9863 17.9188 13.0263 18.9588C14.053 19.9854 14.6663 21.2121 14.853 22.5854C14.893 22.8788 14.9197 23.1988 14.9197 23.4788C14.9197 25.2388 14.2397 26.8788 13.013 28.1188C11.9863 29.1321 10.6663 29.7588 9.17299 29.9454L5.87966 30.3054C5.73299 30.3188 5.58633 30.3321 5.43966 30.3321ZM8.59966 19.0654C8.54633 19.0654 8.47966 19.0654 8.42633 19.0654C6.41299 19.1054 4.27966 20.4788 4.01299 23.0121L3.65299 26.2921C3.58633 26.8521 3.78633 27.3988 4.17299 27.7988C4.55966 28.1854 5.10633 28.3854 5.65299 28.3188L8.93299 27.9588C9.95966 27.8254 10.8797 27.3988 11.573 26.7054C12.4263 25.8521 12.9063 24.7054 12.9063 23.4788C12.9063 23.2788 12.893 23.0654 12.8663 22.8521C12.7463 21.9054 12.3197 21.0788 11.5997 20.3588C10.8797 19.6388 9.98633 19.1854 9.02633 19.0654C8.91966 19.0654 8.75966 19.0654 8.59966 19.0654Z" fill="#DAD7CD"/>
<path d="M18.9864 20.293C18.4397 20.293 17.9864 19.8397 17.9864 19.293C17.9864 16.3597 15.5997 13.9863 12.6797 13.9863C12.133 13.9863 11.6797 13.533 11.6797 12.9863C11.6797 12.4397 12.1197 11.9863 12.6664 11.9863C16.693 11.9863 19.973 15.2663 19.973 19.293C19.9864 19.853 19.533 20.293 18.9864 20.293Z" fill="#DAD7CD"/>
<path d="M20.9064 30.3069C19.6664 30.3069 18.4264 29.7202 17.2397 28.5335C16.853 28.1469 16.853 27.5069 17.2397 27.1202C17.6264 26.7335 18.2664 26.7335 18.653 27.1202C20.2264 28.6935 21.573 28.6935 23.1464 27.1202L27.093 23.1735C28.6797 21.5869 28.6797 20.2402 27.093 18.6669L26.1064 17.6935C25.7197 17.3069 25.7064 16.6669 26.093 16.2802C26.4797 15.8802 27.1197 15.8802 27.5064 16.2669L28.493 17.2402C30.8664 19.6135 30.8664 22.2135 28.493 24.5869L24.5464 28.5335C23.3864 29.7069 22.1464 30.3069 20.9064 30.3069Z" fill="#DAD7CD"/>
<path d="M4.14635 15.013C3.89302 15.013 3.62635 14.9197 3.43969 14.7197C1.09302 12.3597 1.09302 9.74635 3.43969 7.38635L7.38635 3.43969C9.73302 1.09302 12.373 1.09302 14.7197 3.43969L15.7064 4.42635C16.093 4.81302 16.093 5.45302 15.7064 5.83969C15.3197 6.22635 14.6797 6.22635 14.293 5.83969L13.293 4.85302C11.7197 3.27969 10.3597 3.27969 8.79969 4.85302L4.85302 8.79969C3.27969 10.3864 3.27969 11.733 4.85302 13.3197C5.23969 13.7064 5.23969 14.3464 4.85302 14.733C4.65302 14.9197 4.39969 15.013 4.14635 15.013Z" fill="#DAD7CD"/>
<path d="M10.067 11.0648C9.81365 11.0648 9.56031 10.9714 9.36031 10.7714C8.97365 10.3848 8.97365 9.74477 9.36031 9.3581L14.2936 4.42477C14.6803 4.0381 15.3203 4.0381 15.707 4.42477C16.0936 4.81143 16.0936 5.45143 15.707 5.8381L10.7736 10.7714C10.5736 10.9714 10.3203 11.0648 10.067 11.0648Z" fill="#DAD7CD"/>
<path d="M22.88 21.9062C22.6266 21.9062 22.3733 21.8129 22.1733 21.6129C21.7866 21.2262 21.7866 20.5862 22.1733 20.1996L26.12 16.2529C26.5066 15.8662 27.1466 15.8662 27.5333 16.2529C27.92 16.6396 27.92 17.2796 27.5333 17.6662L23.5866 21.6129C23.4 21.8129 23.1466 21.9062 22.88 21.9062Z" fill="#DAD7CD"/>
</svg>
