<svg width="32" height="32" viewBox="0 0 32 32" fill="none" xmlns="http://www.w3.org/2000/svg">
<path d="M13.9065 24.4929C13.7065 24.4929 13.5199 24.4396 13.3465 24.3196C13.0665 24.1329 12.9065 23.8262 12.9065 23.4929C12.9065 23.2929 12.8932 23.0796 12.8665 22.8662C12.7465 21.9196 12.3199 21.0929 11.5999 20.3729C10.8799 19.6529 9.98655 19.1996 9.02655 19.0796C8.86655 19.0662 8.63988 19.0529 8.42655 19.0662C8.07988 19.0929 7.75988 18.9462 7.55988 18.6662C7.35988 18.3996 7.30655 18.0396 7.41321 17.7196C7.61321 17.1729 7.90655 16.6796 8.25321 16.2796L10.3065 13.6929C13.8399 9.27957 20.9999 3.9729 26.2399 1.86624C27.3599 1.43957 28.5332 1.6929 29.3465 2.4929C30.1865 3.3329 30.4399 4.5329 29.9999 5.62624C27.8932 10.8796 22.5999 18.0262 18.1865 21.5596L15.5599 23.6662C15.0665 24.0262 14.6665 24.2529 14.2665 24.4129C14.1599 24.4662 14.0265 24.4929 13.9065 24.4929ZM10.0532 17.2529C11.1732 17.5462 12.1732 18.1329 13.0132 18.9729C13.8532 19.7996 14.4132 20.7596 14.6932 21.8262L16.9465 20.0129C21.1332 16.6662 26.1599 9.87957 28.1465 4.8929C28.3465 4.39957 28.0665 4.0529 27.9332 3.9329C27.8399 3.83957 27.4932 3.54624 26.9599 3.74624C21.9999 5.74624 15.2132 10.7729 11.8532 14.9596L10.0532 17.2529Z" fill="#D4A373"/>
<path d="M5.43966 30.3321C4.43966 30.3321 3.47966 29.9321 2.75966 29.2121C1.93299 28.3854 1.53299 27.2388 1.66633 26.0654L2.02633 22.7854C2.37299 19.5321 5.03966 17.1188 8.34633 17.0521C8.59966 17.0388 8.93299 17.0521 9.23966 17.0788C10.693 17.2654 11.9863 17.9188 13.0263 18.9588C14.053 19.9854 14.6663 21.2121 14.853 22.5854C14.893 22.8788 14.9197 23.1988 14.9197 23.4788C14.9197 25.2388 14.2397 26.8788 13.013 28.1188C11.9863 29.1321 10.6663 29.7588 9.17299 29.9454L5.87966 30.3054C5.73299 30.3188 5.58633 30.3321 5.43966 30.3321ZM8.59966 19.0654C8.54633 19.0654 8.47966 19.0654 8.42633 19.0654C6.41299 19.1054 4.27966 20.4788 4.01299 23.0121L3.65299 26.2921C3.58633 26.8521 3.78633 27.3988 4.17299 27.7988C4.55966 28.1854 5.10633 28.3854 5.65299 28.3188L8.93299 27.9588C9.95966 27.8254 10.8797 27.3988 11.573 26.7054C12.4263 25.8521 12.9063 24.7054 12.9063 23.4788C12.9063 23.2788 12.893 23.0654 12.8663 22.8521C12.7463 21.9054 12.3197 21.0788 11.5997 20.3588C10.8797 19.6388 9.98633 19.1854 9.02633 19.0654C8.91966 19.0654 8.75966 19.0654 8.59966 19.0654Z" fill="#D4A373"/>
<path d="M18.9864 20.294C18.4397 20.294 17.9864 19.8406 17.9864 19.294C17.9864 16.3606 15.5997 13.9873 12.6797 13.9873C12.133 13.9873 11.6797 13.534 11.6797 12.9873C11.6797 12.4406 12.1197 11.9873 12.6664 11.9873C16.693 11.9873 19.973 15.2673 19.973 19.294C19.9864 19.854 19.533 20.294 18.9864 20.294Z" fill="#D4A373"/>
<path d="M20.9064 30.3078C19.6664 30.3078 18.4264 29.7212 17.2397 28.5345C16.853 28.1478 16.853 27.5078 17.2397 27.1212C17.6264 26.7345 18.2664 26.7345 18.653 27.1212C20.2264 28.6945 21.573 28.6945 23.1464 27.1212L27.093 23.1745C28.6797 21.5878 28.6797 20.2412 27.093 18.6678L26.1064 17.6945C25.7197 17.3078 25.7064 16.6678 26.093 16.2812C26.4797 15.8812 27.1197 15.8812 27.5064 16.2678L28.493 17.2412C30.8664 19.6145 30.8664 22.2145 28.493 24.5878L24.5464 28.5345C23.3864 29.7078 22.1464 30.3078 20.9064 30.3078Z" fill="#D4A373"/>
<path d="M4.14635 15.013C3.89302 15.013 3.62635 14.9197 3.43969 14.7197C1.09302 12.3597 1.09302 9.74635 3.43969 7.38635L7.38635 3.43969C9.73302 1.09302 12.373 1.09302 14.7197 3.43969L15.7064 4.42635C16.093 4.81302 16.093 5.45302 15.7064 5.83969C15.3197 6.22635 14.6797 6.22635 14.293 5.83969L13.293 4.85302C11.7197 3.27969 10.3597 3.27969 8.79969 4.85302L4.85302 8.79969C3.27969 10.3864 3.27969 11.733 4.85302 13.3197C5.23969 13.7064 5.23969 14.3464 4.85302 14.733C4.65302 14.9197 4.39969 15.013 4.14635 15.013Z" fill="#D4A373"/>
<path d="M10.067 11.0657C9.81365 11.0657 9.56031 10.9724 9.36031 10.7724C8.97365 10.3857 8.97365 9.74574 9.36031 9.35908L14.2936 4.42574C14.6803 4.03908 15.3203 4.03908 15.707 4.42574C16.0936 4.81241 16.0936 5.45241 15.707 5.83908L10.7736 10.7724C10.5736 10.9724 10.3203 11.0657 10.067 11.0657Z" fill="#D4A373"/>
<path d="M22.88 21.9072C22.6266 21.9072 22.3733 21.8139 22.1733 21.6139C21.7866 21.2272 21.7866 20.5872 22.1733 20.2005L26.12 16.2539C26.5066 15.8672 27.1466 15.8672 27.5333 16.2539C27.92 16.6405 27.92 17.2805 27.5333 17.6672L23.5866 21.6139C23.4 21.8139 23.1466 21.9072 22.88 21.9072Z" fill="#D4A373"/>
</svg>
