<svg width="32" height="32" viewBox="0 0 32 32" fill="none" xmlns="http://www.w3.org/2000/svg">
<path d="M25.3332 14.3327H22.6665C19.4398 14.3327 17.6665 12.5593 17.6665 9.33268V6.66602C17.6665 3.43935 19.4398 1.66602 22.6665 1.66602H25.3332C28.5598 1.66602 30.3332 3.43935 30.3332 6.66602V9.33268C30.3332 12.5593 28.5598 14.3327 25.3332 14.3327ZM22.6665 3.66602C20.5598 3.66602 19.6665 4.55935 19.6665 6.66602V9.33268C19.6665 11.4393 20.5598 12.3327 22.6665 12.3327H25.3332C27.4398 12.3327 28.3332 11.4393 28.3332 9.33268V6.66602C28.3332 4.55935 27.4398 3.66602 25.3332 3.66602H22.6665Z" fill="#D4A373"/>
<path d="M9.33317 30.3327H6.6665C3.43984 30.3327 1.6665 28.5593 1.6665 25.3327V22.666C1.6665 19.4393 3.43984 17.666 6.6665 17.666H9.33317C12.5598 17.666 14.3332 19.4393 14.3332 22.666V25.3327C14.3332 28.5593 12.5598 30.3327 9.33317 30.3327ZM6.6665 19.666C4.55984 19.666 3.6665 20.5593 3.6665 22.666V25.3327C3.6665 27.4393 4.55984 28.3327 6.6665 28.3327H9.33317C11.4398 28.3327 12.3332 27.4393 12.3332 25.3327V22.666C12.3332 20.5593 11.4398 19.666 9.33317 19.666H6.6665Z" fill="#D4A373"/>
<path d="M7.99984 14.3327C4.5065 14.3327 1.6665 11.4927 1.6665 7.99935C1.6665 4.50602 4.5065 1.66602 7.99984 1.66602C11.4932 1.66602 14.3332 4.50602 14.3332 7.99935C14.3332 11.4927 11.4932 14.3327 7.99984 14.3327ZM7.99984 3.66602C5.61317 3.66602 3.6665 5.61268 3.6665 7.99935C3.6665 10.386 5.61317 12.3327 7.99984 12.3327C10.3865 12.3327 12.3332 10.386 12.3332 7.99935C12.3332 5.61268 10.3865 3.66602 7.99984 3.66602Z" fill="#D4A373"/>
<path d="M23.9998 30.3327C20.5065 30.3327 17.6665 27.4927 17.6665 23.9993C17.6665 20.506 20.5065 17.666 23.9998 17.666C27.4932 17.666 30.3332 20.506 30.3332 23.9993C30.3332 27.4927 27.4932 30.3327 23.9998 30.3327ZM23.9998 19.666C21.6132 19.666 19.6665 21.6127 19.6665 23.9993C19.6665 26.386 21.6132 28.3327 23.9998 28.3327C26.3865 28.3327 28.3332 26.386 28.3332 23.9993C28.3332 21.6127 26.3865 19.666 23.9998 19.666Z" fill="#D4A373"/>
</svg>
