<svg width="32" height="32" viewBox="0 0 32 32" fill="none" xmlns="http://www.w3.org/2000/svg">
<path d="M7.38665 26.0235C6.57332 26.0235 5.81332 25.7435 5.26665 25.2235C4.57332 24.5701 4.23998 23.5835 4.35998 22.5168L4.85332 18.1968C4.94665 17.3835 5.43998 16.3035 6.01332 15.7168L16.96 4.13014C19.6933 1.23681 22.5466 1.15681 25.44 3.89014C28.3333 6.62348 28.4133 9.47681 25.68 12.3701L14.7333 23.9568C14.1733 24.5568 13.1333 25.1168 12.32 25.2501L8.02665 25.9835C7.79998 25.9968 7.59998 26.0235 7.38665 26.0235ZM21.24 3.87681C20.2133 3.87681 19.32 4.51681 18.4133 5.47681L7.46665 17.0768C7.19998 17.3568 6.89332 18.0235 6.83998 18.4101L6.34665 22.7301C6.29332 23.1701 6.39998 23.5301 6.63998 23.7568C6.87998 23.9835 7.23998 24.0635 7.67998 23.9968L11.9733 23.2635C12.36 23.1968 13 22.8501 13.2666 22.5701L24.2133 10.9835C25.8666 9.22348 26.4667 7.59681 24.0533 5.33014C22.9867 4.30348 22.0667 3.87681 21.24 3.87681Z" fill="#DAD7CD"/>
<path d="M23.1199 14.6004C23.0933 14.6004 23.0533 14.6004 23.0266 14.6004C18.8666 14.1871 15.5199 11.0271 14.8799 6.89378C14.7999 6.34712 15.1733 5.84045 15.7199 5.74712C16.2666 5.66712 16.7733 6.04045 16.8666 6.58712C17.3733 9.81378 19.9866 12.2938 23.2399 12.6138C23.7866 12.6671 24.1866 13.1604 24.1333 13.7071C24.0666 14.2138 23.6266 14.6004 23.1199 14.6004Z" fill="#DAD7CD"/>
<path d="M28 30.3359H4C3.45333 30.3359 3 29.8826 3 29.3359C3 28.7893 3.45333 28.3359 4 28.3359H28C28.5467 28.3359 29 28.7893 29 29.3359C29 29.8826 28.5467 30.3359 28 30.3359Z" fill="#DAD7CD"/>
</svg>
