<svg width="64" height="64" viewBox="0 0 64 64" fill="none" xmlns="http://www.w3.org/2000/svg">
<path d="M39.6729 23.0987H41.4838C42.1952 23.0987 42.7772 22.5166 42.7772 21.8052C42.7772 21.0938 42.1952 20.5117 41.4838 20.5117H39.6729C38.9615 20.5117 38.3794 21.0938 38.3794 21.8052C38.3794 22.5166 38.9615 23.0987 39.6729 23.0987Z" fill="#DAD7CD"/>
<path d="M63.7319 54.7248L62.1151 50.7797C61.5977 49.6156 60.4335 48.8395 59.14 48.8395H57.7172V23.0991H60.4982C61.727 23.0991 62.7618 22.2584 63.0205 21.0942C63.2792 19.9301 62.6971 18.7013 61.5977 18.1839L34.6932 5.44307C33.0117 4.60231 31.0068 4.60231 29.1959 5.44307L2.16204 18.1839C1.06258 18.7013 0.480509 19.8654 0.739206 21.0942C0.997903 22.323 2.03269 23.1638 3.2615 23.1638H5.97782V48.9042H4.81368C3.5202 48.9042 2.35606 49.6802 1.83867 50.8444L0.221812 54.7248C-0.166233 55.7596 -0.036885 56.8591 0.545183 57.7645C1.12725 58.67 2.16204 59.1874 3.19683 59.1874H60.7569C61.7917 59.1874 62.8265 58.67 63.4085 57.7645C64.0553 56.9238 64.1846 55.7596 63.7319 54.7248ZM3.32618 20.5122L30.2953 7.77135C31.3948 7.25395 32.5589 7.25395 33.5937 7.77135L60.5629 20.5122H56.4237C55.7123 20.5122 55.1302 21.0942 55.1302 21.8057C55.1302 21.935 55.1302 21.9997 55.1949 22.0644C55.1949 22.129 55.1302 22.2584 55.1302 22.323V48.8395H49.9563V30.86C49.9563 28.0144 47.628 25.6861 44.7824 25.6861C41.9367 25.6861 39.6084 28.0144 39.6084 30.86V48.9042H37.0215V30.86C37.0215 28.0144 34.6932 25.6861 31.8475 25.6861C29.0018 25.6861 26.6736 28.0144 26.6736 30.86V48.9042H24.0866V30.86C24.0866 28.0144 21.7583 25.6861 18.9127 25.6861C16.067 25.6861 13.7387 28.0144 13.7387 30.86V48.9042H8.56479V23.0991H33.8524C34.5638 23.0991 35.1459 22.5171 35.1459 21.8057C35.1459 21.0942 34.5638 20.5122 33.8524 20.5122H3.32618ZM47.3693 30.86V48.9042H42.1954V30.86C42.1954 29.4372 43.3595 28.2731 44.7824 28.2731C46.2052 28.2731 47.3693 29.4372 47.3693 30.86ZM34.4345 30.86V48.9042H29.2605V30.86C29.2605 29.4372 30.4247 28.2731 31.8475 28.2731C33.2703 28.2731 34.4345 29.4372 34.4345 30.86ZM21.4996 30.86V48.9042H16.3257V30.86C16.3257 29.4372 17.4898 28.2731 18.9127 28.2731C20.3355 28.2731 21.4996 29.4372 21.4996 30.86ZM61.2743 56.3417C61.2096 56.4064 61.0156 56.6651 60.7569 56.6651H3.19683C2.87346 56.6651 2.74411 56.471 2.67943 56.3417C2.61476 56.277 2.48541 56.0183 2.61476 55.695L4.23161 51.8792C4.36096 51.6205 4.61966 51.4911 4.87836 51.4911H59.2047C59.4634 51.4911 59.7221 51.6205 59.8515 51.8792L61.4683 55.7596C61.4683 56.0183 61.339 56.277 61.2743 56.3417Z" fill="#DAD7CD"/>
</svg>
