<svg width="24" height="26" viewBox="0 0 24 26" fill="none" xmlns="http://www.w3.org/2000/svg">
<path d="M3.38665 25.0235C2.57332 25.0235 1.81332 24.7435 1.26665 24.2235C0.573315 23.5701 0.239982 22.5835 0.359982 21.5168L0.853315 17.1968C0.946649 16.3835 1.43998 15.3035 2.01332 14.7168L12.96 3.13014C15.6933 0.23681 18.5466 0.156811 21.44 2.89014C24.3333 5.62348 24.4133 8.47681 21.68 11.3701L10.7333 22.9568C10.1733 23.5568 9.13332 24.1168 8.31998 24.2501L4.02665 24.9835C3.79998 24.9968 3.59998 25.0235 3.38665 25.0235ZM17.24 2.87681C16.2133 2.87681 15.32 3.51681 14.4133 4.47681L3.46665 16.0768C3.19998 16.3568 2.89332 17.0235 2.83998 17.4101L2.34665 21.7301C2.29332 22.1701 2.39998 22.5301 2.63998 22.7568C2.87998 22.9835 3.23998 23.0635 3.67998 22.9968L7.97332 22.2635C8.35998 22.1968 8.99998 21.8501 9.26665 21.5701L20.2133 9.98348C21.8666 8.22348 22.4667 6.59681 20.0533 4.33014C18.9867 3.30348 18.0667 2.87681 17.24 2.87681Z" fill="#DAD7CD"/>
</svg>
