<svg width="80" height="68" viewBox="0 0 80 68" fill="none" xmlns="http://www.w3.org/2000/svg">
<path d="M79.6649 62.4061L77.6438 57.4747C76.9971 56.0196 75.5419 55.0494 73.925 55.0494H72.1465V22.874H75.6227C77.1588 22.874 78.4522 21.8231 78.7756 20.3679C79.099 18.9127 78.3714 17.3767 76.9971 16.73L43.3665 0.803934C41.2646 -0.247023 38.7584 -0.247023 36.4948 0.803934L2.70255 16.73C1.32822 17.3767 0.600636 18.8319 0.924007 20.3679C1.24738 21.9039 2.54086 22.9549 4.07688 22.9549H7.47227V55.1303H6.0171C4.40025 55.1303 2.94508 56.1004 2.29833 57.5556L0.277265 62.4061C-0.207792 63.6996 -0.0461062 65.074 0.681479 66.2057C1.40906 67.3376 2.70255 67.9843 3.99603 67.9843H75.9461C77.2396 67.9843 78.5331 67.3376 79.2607 66.2057C80.0691 65.1548 80.2308 63.6996 79.6649 62.4061ZM4.15772 19.6403L37.8692 3.71427C39.2435 3.06753 40.6987 3.06753 41.9921 3.71427L75.7036 19.6403H70.5296C69.6404 19.6403 68.9128 20.3679 68.9128 21.2572C68.9128 21.4188 68.9128 21.4997 68.9936 21.5805C68.9936 21.6614 68.9128 21.8231 68.9128 21.9039V55.0494H62.4454V32.5752C62.4454 29.0181 59.535 26.1077 55.9779 26.1077C52.4209 26.1077 49.5105 29.0181 49.5105 32.5752V55.1303H46.2768V32.5752C46.2768 29.0181 43.3665 26.1077 39.8094 26.1077C36.2523 26.1077 33.342 29.0181 33.342 32.5752V55.1303H30.1083V32.5752C30.1083 29.0181 27.1979 26.1077 23.6408 26.1077C20.0837 26.1077 17.1734 29.0181 17.1734 32.5752V55.1303H10.706V22.874H42.3155C43.2048 22.874 43.9324 22.1464 43.9324 21.2572C43.9324 20.3679 43.2048 19.6403 42.3155 19.6403H4.15772ZM59.2117 32.5752V55.1303H52.7442V32.5752C52.7442 30.7966 54.1994 29.3414 55.9779 29.3414C57.7565 29.3414 59.2117 30.7966 59.2117 32.5752ZM43.0431 32.5752V55.1303H36.5757V32.5752C36.5757 30.7966 38.0308 29.3414 39.8094 29.3414C41.5879 29.3414 43.0431 30.7966 43.0431 32.5752ZM26.8745 32.5752V55.1303H20.4071V32.5752C20.4071 30.7966 21.8623 29.3414 23.6408 29.3414C25.4194 29.3414 26.8745 30.7966 26.8745 32.5752ZM76.5929 64.4272C76.512 64.508 76.2695 64.8314 75.9461 64.8314H3.99603C3.59182 64.8314 3.43013 64.5889 3.34929 64.4272C3.26845 64.3464 3.10676 64.023 3.26845 63.6188L5.28952 58.8491C5.4512 58.5257 5.77457 58.364 6.09795 58.364H74.0059C74.3293 58.364 74.6526 58.5257 74.8143 58.8491L76.8354 63.6996C76.8354 64.023 76.6737 64.3464 76.5929 64.4272Z" fill="white"/>
</svg>
